<svg xmlns="http://www.w3.org/2000/svg" width="60" height="20" viewBox="0 0 60 20" fill="none">
<path d="M16.021 0.482926V10.7854C16.021 13.1463 15.9135 15.4751 14.0976 17.2673C12.5503 18.7805 10.1649 19.2956 8.01586 19.2956C5.86684 19.2956 3.45993 18.7483 1.93412 17.2673C0.107451 15.4859 0 13.1463 0 10.7854V0.482926H4.78158V10.1415C4.78158 12.5239 4.94276 15.1317 8.01586 15.1317C11.089 15.1317 11.2501 12.5239 11.2501 10.1415V0.482926H16.0317H16.021Z" fill="#F15A22"/>
<path d="M23.6715 18.8127H18.8899V4.52878H14.9572V0.482926H27.6042V4.51805H23.6715V18.8019V18.8127Z" fill="#F15A22"/>
<path d="M36.7269 5.20488C35.8565 4.47512 34.7175 3.98146 33.5463 3.98146C32.676 3.98146 31.5155 4.49658 31.5155 5.49463C31.5155 6.55707 32.8156 6.98634 33.6323 7.25463L34.8572 7.60878C37.4038 8.37073 39.3917 9.63707 39.3917 12.6205C39.3917 14.4341 38.9619 16.3122 37.4898 17.5571C36.0499 18.7805 34.1266 19.2956 32.2784 19.2956C29.9682 19.2956 27.6902 18.5122 25.8206 17.2029L27.8514 13.3502C29.0441 14.4127 30.4625 15.2498 32.085 15.2498C33.2025 15.2498 34.3952 14.681 34.3952 13.4039C34.3952 12.1268 32.5255 11.6117 31.494 11.3112C28.5069 10.4741 26.5298 9.68 26.5298 6.1278C26.5835 2.41463 29.216 -0.0214653 32.9124 -0.0214653C34.7605 -0.0214653 37.0385 0.57951 38.6717 1.49171L36.7484 5.18341L36.7269 5.20488Z" fill="#F15A22"/>
<path d="M43.6467 15.6468L42.3681 18.8234H37.2964L44.3559 0.482926H49.5673L56.4872 18.8127H51.4155L50.2227 15.6361H43.6575L43.6467 15.6468ZM46.9885 6.16H46.9347L44.9576 11.9873H48.9226L46.9992 6.16H46.9885Z" fill="#F15A22"/>
<path d="M57.8732 16.162C58.6576 16.162 59.2594 16.7629 59.2594 17.5141C59.2594 18.2654 58.6576 18.8663 57.8732 18.8663C57.0888 18.8663 56.4656 18.2654 56.4656 17.5141C56.4979 16.7522 57.0888 16.162 57.8732 16.162ZM57.8732 16.4302C57.2715 16.4302 56.8417 16.9132 56.8417 17.5141C56.8417 18.1151 57.2715 18.5981 57.9055 18.5981C58.5394 18.5981 58.937 18.1151 58.937 17.5141C58.937 16.9132 58.475 16.4302 57.8732 16.4302ZM57.6583 18.2224H57.336V16.8702C57.4757 16.8381 57.6368 16.8166 57.8517 16.8166C58.0989 16.8166 58.2278 16.8702 58.3138 16.9239C58.3997 16.9776 58.4535 17.0849 58.4535 17.2244C58.4535 17.3854 58.346 17.4927 58.1848 17.5463V17.5785C58.3245 17.6322 58.3997 17.7395 58.432 17.9005C58.4642 18.1151 58.4857 18.201 58.5394 18.2224H58.2171C58.1633 18.1688 58.1634 18.0615 58.1096 17.9005C58.0774 17.761 58.0022 17.6859 57.841 17.6859H57.6798V18.2332L57.6583 18.2224ZM57.6906 17.4605H57.8302C57.9914 17.4605 58.1526 17.4068 58.1526 17.2673C58.1526 17.1278 58.0666 17.0527 57.8517 17.0527C57.7658 17.0527 57.7121 17.0527 57.6906 17.0849V17.4605Z" fill="#F15A22"/>
</svg>